<?xml version="1.0" standalone="no"?>
<!DOCTYPE svg PUBLIC "-//W3C//DTD SVG 20010904//EN"
 "http://www.w3.org/TR/2001/REC-SVG-20010904/DTD/svg10.dtd">
<svg version="1.0" xmlns="http://www.w3.org/2000/svg"
 width="480.915800pt" height="473.890681pt" viewBox="0 0 480.915800 473.890681"
 preserveAspectRatio="xMidYMid meet">
<metadata>
Created by potrace 1.15, written by Peter Selinger 2001-2017
</metadata>
<g transform="translate(-21.045694,498.781229) scale(0.100000,-0.100000)"
fill="#000000" stroke="none">
<path d="M441 4969 c-87 -28 -177 -116 -210 -204 -31 -82 -26 -206 12 -280 31
-62 112 -139 175 -168 71 -32 198 -30 272 4 65 30 121 76 150 125 l22 34 1751
0 1752 0 35 -47 c127 -173 378 -189 523 -34 70 75 90 121 95 223 4 80 2 92
-25 150 -53 112 -120 172 -229 204 -155 45 -330 -39 -395 -190 l-24 -56 -1730
1 -1730 0 -29 61 c-75 158 -248 232 -415 177z m179 -197 c98 -49 108 -181 20
-256 -67 -55 -185 -24 -225 60 -59 124 81 259 205 196z m4137 -7 c51 -31 73
-68 73 -127 0 -83 -66 -148 -150 -148 -118 0 -187 121 -127 224 43 75 127 96
204 51z"/>
<path d="M1137 4092 c-15 -10 -34 -27 -42 -38 -19 -25 -19 -104 1 -132 36 -52
37 -52 544 -52 l470 0 0 -1520 0 -1520 -39 -24 c-163 -104 -191 -335 -56 -471
110 -109 293 -115 409 -14 159 140 126 399 -63 499 l-23 12 3 1582 c4 1566 4
1581 -16 1615 -11 19 -33 43 -48 55 -28 21 -37 21 -570 24 -512 2 -544 1 -570
-16z m1161 -3448 c13 -9 31 -32 39 -52 21 -50 2 -107 -46 -139 -40 -27 -71
-29 -117 -7 -45 21 -68 65 -61 116 12 89 109 132 185 82z"/>
<path d="M2975 4100 c-28 -11 -72 -60 -84 -93 -8 -20 -11 -515 -11 -1605 l0
-1577 -36 -20 c-91 -49 -150 -164 -141 -276 14 -165 131 -279 288 -279 94 0
154 24 215 85 142 141 116 372 -52 471 l-44 26 0 1519 0 1518 486 3 486 3 34
37 c38 43 45 88 19 138 -32 61 -22 60 -607 59 -293 0 -542 -4 -553 -9z m95
-3459 c14 -10 31 -36 39 -58 13 -36 12 -43 -5 -79 -37 -75 -131 -94 -188 -38
-35 36 -43 84 -20 131 34 69 113 89 174 44z"/>
</g>
</svg>
